<mxfile host="Electron" agent="Mozilla/5.0 (Windows NT 10.0; Win64; x64) AppleWebKit/537.36 (KHTML, like Gecko) draw.io/24.7.17 Chrome/128.0.6613.36 Electron/32.0.1 Safari/537.36" version="24.7.17">
  <diagram name="Page-1" id="5l8lhjtznpjadvlU-sdQ">
    <mxGraphModel dx="1950" dy="809" grid="1" gridSize="10" guides="1" tooltips="1" connect="1" arrows="1" fold="1" page="1" pageScale="1" pageWidth="850" pageHeight="1100" math="0" shadow="0">
      <root>
        <mxCell id="0" />
        <mxCell id="1" parent="0" />
        <mxCell id="S22BeLWzxtmZDSywWsAK-33" value="" style="rounded=0;whiteSpace=wrap;html=1;" vertex="1" parent="1">
          <mxGeometry x="140" y="374.5" width="470" height="275.5" as="geometry" />
        </mxCell>
        <mxCell id="S22BeLWzxtmZDSywWsAK-7" style="edgeStyle=orthogonalEdgeStyle;rounded=0;orthogonalLoop=1;jettySize=auto;html=1;" edge="1" parent="1" source="S22BeLWzxtmZDSywWsAK-1" target="S22BeLWzxtmZDSywWsAK-2">
          <mxGeometry relative="1" as="geometry" />
        </mxCell>
        <mxCell id="S22BeLWzxtmZDSywWsAK-8" style="edgeStyle=orthogonalEdgeStyle;rounded=0;orthogonalLoop=1;jettySize=auto;html=1;entryX=0;entryY=0.5;entryDx=0;entryDy=0;" edge="1" parent="1" source="S22BeLWzxtmZDSywWsAK-2" target="S22BeLWzxtmZDSywWsAK-3">
          <mxGeometry relative="1" as="geometry" />
        </mxCell>
        <mxCell id="S22BeLWzxtmZDSywWsAK-9" style="edgeStyle=orthogonalEdgeStyle;rounded=0;orthogonalLoop=1;jettySize=auto;html=1;entryX=0;entryY=0.5;entryDx=0;entryDy=0;" edge="1" parent="1" source="S22BeLWzxtmZDSywWsAK-3" target="S22BeLWzxtmZDSywWsAK-4">
          <mxGeometry relative="1" as="geometry" />
        </mxCell>
        <mxCell id="S22BeLWzxtmZDSywWsAK-3" value="API Gateway" style="sketch=0;html=1;verticalAlign=top;labelPosition=center;verticalLabelPosition=bottom;align=center;spacingTop=-6;fontSize=11;fontStyle=1;fontColor=#999999;shape=image;aspect=fixed;imageAspect=0;image=data:image/svg+xml,PHN2ZyB4bWxucz0iaHR0cDovL3d3dy53My5vcmcvMjAwMC9zdmciIGhlaWdodD0iMzY3LjgxODMyODg1NzQyMTkiIHZpZXdCb3g9IjcuMTA1NDI3MzU3NjAxMDAyZS0xNSAwIDM2Ni40MTAxODY3Njc1NzgxIDM2Ny44MTgzMjg4NTc0MjE5IiBwcmVzZXJ2ZUFzcGVjdFJhdGlvPSJ4TWlkWU1pZCBtZWV0IiB3aWR0aD0iMzY2LjQxMDE5Njc2NzU3OTEiIHZlcnNpb249IjEuMSIgaWQ9InN2Zzk4NyIgem9vbUFuZFBhbj0ibWFnbmlmeSI+JiN4YTsgIDxwYXRoIGQ9Im0gNDguMjUxOTYsMTExLjUzOTA2IGMgLTcuNjE4NjQsMmUtNCAtMTMuNzk0NzIsNi4xNzYyOCAtMTMuNzk0OTMsMTMuNzk0OTIgMi4xZS00LDcuNjE4NjQgNi4xNzYyOSwxMy43OTQ3MiAxMy43OTQ5MywxMy43OTQ5MiBoIDE0NS4xNDY5MiB2IC0yNy41ODk4NCB6IG0gMjM4LjYwODU5LDU3LjQ1MTE3IGggNjUuNzU0NjkgYyA3LjYxODY0LC0yLjFlLTQgMTMuNzk0NzEsLTYuMTc2MjggMTMuNzk0OTIsLTEzLjc5NDkyIC0yLjFlLTQsLTcuNjE4NjQgLTYuMTc2MjgsLTEzLjc5NDcxIC0xMy43OTQ5MiwtMTMuNzk0OTIgSCAyODQuODUwNiBaIE0gMTMuNzk0OTIsMTcwLjk3NDYxIEMgNi4xNzYyODAxLDE3MC45NzQ4MiAyLjEwMDkxOWUtNCwxNzcuMTUwODkgOS4xODk5MjFlLTgsMTg0Ljc2OTUzIC04LjY5OTA4MWUtNCwxOTIuMzg4OTMgNi4xNzU1MjAxLDE5OC41NjYxOSAxMy43OTQ5MiwxOTguNTY2NCBIIDE5My4zOTg4OCBWIDE3MC45NzQ2MSBaIE0gMjg0LjMwNzgsMjI3LjU2NjQgaCA2OC4zMDc0NCBjIDcuNjE4NjQsLTIuMWUtNCAxMy43OTQ3MSwtNi4xNzYyOCAxMy43OTQ5MiwtMTMuNzk0OTIgLTIuMWUtNCwtNy42MTg2NCAtNi4xNzYyOCwtMTMuNzk0NzEgLTEzLjc5NDkyLC0xMy43OTQ5MiBoIC02NS45MjE3OCB6IG0gLTIzNi4wNTU4NCwxLjY5NzI3IGMgLTcuNjE4NjQsMmUtNCAtMTMuNzk0NzIsNi4xNzYyOCAtMTMuNzk0OTMsMTMuNzk0OTIgMi4xZS00LDcuNjE4NjQgNi4xNzYyOSwxMy43OTQ3MiAxMy43OTQ5MywxMy43OTQ5MiBIIDE5My4zOTg4OCBWIDIyOS4yNjM2NyBaIE0gMTg5LjUyMTQ5LDAgYyAtMjQuNTc0MTEsMCAtNDkuMTY3MzcsMjAuMDU1MDcgLTU5LjQzNzUsNzUuMzczMDQgaCAzMC41ODAwNyBjIDQuNjE2MzMsLTI0LjE2MjA2IDE1LjM0ODk2LC00Ny41MjE0OCAyNy44NTM1MiwtNDcuNTIxNDggMTIuMTU4OCwwIDM5LjQ1ODk4LDU3LjQ1MDQ0IDM5LjQ1ODk4LDE2MC40MTQwNiAwLDY5LjkxNTEzIC0xOS41NzgwOSwxNTIuMTE1MjQgLTQxLjE3MTg3LDE1Mi4xMTUyMyAtMTUuMjY4ODEsMmUtNSAtMjEuMjE2NjgsLTI4LjMzMzU2IC0yNS40NDMzNiwtNDYuNzE4NzQgbCAtMzAuNDE0MDYsLTAuMDY4NCBjIDQuMjIwNzQsMjAuNTQwODcgMTYuOTA3NjgsNzQuMjI0NiA1Ny43MTI4OSw3NC4yMjQ2IDUzLjQzNjcyLDAgNjguOTEyMTEsLTExMS45OTMwNSA2OC45MTIxMSwtMTgwLjQ2Mjg5IEMgMjU3LjU3MjI3LDkzLjgwMDc2IDIzNi41ODM0LDAgMTg5LjUyMTQ5LDAgWiIgc3R5bGU9ImNvbG9yOiMwMDAwMDA7b3BhY2l0eToxO2ZpbGw6IzQyODVmNDtmaWxsLW9wYWNpdHk6MTtzdHJva2UtbGluZWNhcDpyb3VuZDstaW5rc2NhcGUtc3Ryb2tlOm5vbmUiLz4mI3hhOzwvc3ZnPg==;" vertex="1" parent="1">
          <mxGeometry x="180" y="429" width="51" height="51" as="geometry" />
        </mxCell>
        <mxCell id="S22BeLWzxtmZDSywWsAK-10" style="edgeStyle=orthogonalEdgeStyle;rounded=0;orthogonalLoop=1;jettySize=auto;html=1;entryX=0;entryY=0.5;entryDx=0;entryDy=0;" edge="1" parent="1" source="S22BeLWzxtmZDSywWsAK-4" target="S22BeLWzxtmZDSywWsAK-5">
          <mxGeometry relative="1" as="geometry" />
        </mxCell>
        <mxCell id="S22BeLWzxtmZDSywWsAK-11" style="edgeStyle=orthogonalEdgeStyle;rounded=0;orthogonalLoop=1;jettySize=auto;html=1;" edge="1" parent="1" source="S22BeLWzxtmZDSywWsAK-6">
          <mxGeometry relative="1" as="geometry">
            <mxPoint x="380" y="520" as="targetPoint" />
          </mxGeometry>
        </mxCell>
        <mxCell id="S22BeLWzxtmZDSywWsAK-6" value="" style="sketch=0;pointerEvents=1;shadow=0;dashed=0;html=1;strokeColor=none;fillColor=#005F4B;labelPosition=center;verticalLabelPosition=bottom;verticalAlign=top;align=center;outlineConnect=0;shape=mxgraph.veeam2.transport;" vertex="1" parent="1">
          <mxGeometry x="345.5" y="780" width="69" height="40" as="geometry" />
        </mxCell>
        <mxCell id="S22BeLWzxtmZDSywWsAK-14" value="" style="group" vertex="1" connectable="0" parent="1">
          <mxGeometry x="-20" y="423.5" width="100" height="92" as="geometry" />
        </mxCell>
        <mxCell id="S22BeLWzxtmZDSywWsAK-2" value="" style="shadow=0;dashed=0;html=1;strokeColor=none;fillColor=#4495D1;labelPosition=center;verticalLabelPosition=bottom;verticalAlign=top;align=center;outlineConnect=0;shape=mxgraph.veeam.2d.web_ui;" vertex="1" parent="S22BeLWzxtmZDSywWsAK-14">
          <mxGeometry x="20" width="60" height="62" as="geometry" />
        </mxCell>
        <mxCell id="S22BeLWzxtmZDSywWsAK-13" value="User Interface" style="text;html=1;align=center;verticalAlign=middle;resizable=0;points=[];autosize=1;strokeColor=none;fillColor=none;" vertex="1" parent="S22BeLWzxtmZDSywWsAK-14">
          <mxGeometry y="62" width="100" height="30" as="geometry" />
        </mxCell>
        <mxCell id="S22BeLWzxtmZDSywWsAK-15" value="" style="group" vertex="1" connectable="0" parent="1">
          <mxGeometry x="-185" y="424.5" width="50" height="91" as="geometry" />
        </mxCell>
        <mxCell id="S22BeLWzxtmZDSywWsAK-1" value="" style="shape=actor;whiteSpace=wrap;html=1;" vertex="1" parent="S22BeLWzxtmZDSywWsAK-15">
          <mxGeometry x="5" width="40" height="60" as="geometry" />
        </mxCell>
        <mxCell id="S22BeLWzxtmZDSywWsAK-12" value="User" style="text;html=1;align=center;verticalAlign=middle;resizable=0;points=[];autosize=1;strokeColor=none;fillColor=none;" vertex="1" parent="S22BeLWzxtmZDSywWsAK-15">
          <mxGeometry y="61" width="50" height="30" as="geometry" />
        </mxCell>
        <mxCell id="S22BeLWzxtmZDSywWsAK-17" value="" style="group" vertex="1" connectable="0" parent="1">
          <mxGeometry x="310" y="492.5" width="140" height="85.5" as="geometry" />
        </mxCell>
        <mxCell id="S22BeLWzxtmZDSywWsAK-4" value="" style="image;aspect=fixed;perimeter=ellipsePerimeter;html=1;align=center;shadow=0;dashed=0;fontColor=#4277BB;labelBackgroundColor=default;fontSize=12;spacingTop=3;image=img/lib/ibm/infrastructure/mobile_backend.svg;" vertex="1" parent="S22BeLWzxtmZDSywWsAK-17">
          <mxGeometry x="40" width="60" height="60" as="geometry" />
        </mxCell>
        <mxCell id="S22BeLWzxtmZDSywWsAK-16" value="Management System" style="text;html=1;align=center;verticalAlign=middle;resizable=0;points=[];autosize=1;strokeColor=none;fillColor=none;" vertex="1" parent="S22BeLWzxtmZDSywWsAK-17">
          <mxGeometry y="55.5" width="140" height="30" as="geometry" />
        </mxCell>
        <mxCell id="S22BeLWzxtmZDSywWsAK-19" value="" style="group" vertex="1" connectable="0" parent="1">
          <mxGeometry x="500" y="415" width="80" height="110" as="geometry" />
        </mxCell>
        <mxCell id="S22BeLWzxtmZDSywWsAK-5" value="" style="image;html=1;image=img/lib/clip_art/computers/Database_128x128.png" vertex="1" parent="S22BeLWzxtmZDSywWsAK-19">
          <mxGeometry width="80" height="80" as="geometry" />
        </mxCell>
        <mxCell id="S22BeLWzxtmZDSywWsAK-18" value="Database" style="text;html=1;align=center;verticalAlign=middle;resizable=0;points=[];autosize=1;strokeColor=none;fillColor=none;" vertex="1" parent="S22BeLWzxtmZDSywWsAK-19">
          <mxGeometry x="5" y="80" width="70" height="30" as="geometry" />
        </mxCell>
        <mxCell id="S22BeLWzxtmZDSywWsAK-20" value="Order ID" style="text;html=1;align=center;verticalAlign=middle;resizable=0;points=[];autosize=1;strokeColor=none;fillColor=none;" vertex="1" parent="1">
          <mxGeometry x="-110" y="423.5" width="70" height="30" as="geometry" />
        </mxCell>
        <mxCell id="S22BeLWzxtmZDSywWsAK-21" value="Request" style="text;html=1;align=center;verticalAlign=middle;resizable=0;points=[];autosize=1;strokeColor=none;fillColor=none;" vertex="1" parent="1">
          <mxGeometry x="70" y="423.5" width="70" height="30" as="geometry" />
        </mxCell>
        <mxCell id="S22BeLWzxtmZDSywWsAK-22" value="Distribute" style="text;html=1;align=center;verticalAlign=middle;resizable=0;points=[];autosize=1;strokeColor=none;fillColor=none;" vertex="1" parent="1">
          <mxGeometry x="250" y="423.5" width="70" height="30" as="geometry" />
        </mxCell>
        <mxCell id="S22BeLWzxtmZDSywWsAK-23" value="Query" style="text;html=1;align=center;verticalAlign=middle;resizable=0;points=[];autosize=1;strokeColor=none;fillColor=none;" vertex="1" parent="1">
          <mxGeometry x="395" y="462.5" width="60" height="30" as="geometry" />
        </mxCell>
        <mxCell id="S22BeLWzxtmZDSywWsAK-24" value="Pull Shipping Information&amp;nbsp;" style="text;strokeColor=none;align=center;fillColor=none;html=1;verticalAlign=middle;whiteSpace=wrap;rounded=0;" vertex="1" parent="1">
          <mxGeometry x="330" y="650" width="40" height="70" as="geometry" />
        </mxCell>
        <mxCell id="S22BeLWzxtmZDSywWsAK-27" value="Third-Party Shipping" style="text;html=1;align=center;verticalAlign=middle;resizable=0;points=[];autosize=1;strokeColor=none;fillColor=none;" vertex="1" parent="1">
          <mxGeometry x="315" y="828" width="130" height="30" as="geometry" />
        </mxCell>
        <mxCell id="S22BeLWzxtmZDSywWsAK-29" style="edgeStyle=orthogonalEdgeStyle;rounded=0;orthogonalLoop=1;jettySize=auto;html=1;" edge="1" parent="1" source="S22BeLWzxtmZDSywWsAK-16">
          <mxGeometry relative="1" as="geometry">
            <mxPoint x="200" y="500" as="targetPoint" />
          </mxGeometry>
        </mxCell>
        <mxCell id="S22BeLWzxtmZDSywWsAK-30" value="Response" style="text;html=1;align=center;verticalAlign=middle;resizable=0;points=[];autosize=1;strokeColor=none;fillColor=none;" vertex="1" parent="1">
          <mxGeometry x="210" y="578" width="80" height="30" as="geometry" />
        </mxCell>
      </root>
    </mxGraphModel>
  </diagram>
</mxfile>
